<?xml version="1.0" encoding="UTF-8"?>
<svg id="Layer_1" data-name="Layer 1" xmlns="http://www.w3.org/2000/svg" xmlns:xlink="http://www.w3.org/1999/xlink" viewBox="0 0 494.25 147.5">
  <defs>
    <style>
      .cls-1, .cls-2, .cls-3, .cls-4, .cls-5, .cls-6, .cls-7, .cls-8, .cls-9, .cls-10, .cls-11, .cls-12, .cls-13, .cls-14, .cls-15, .cls-16, .cls-17, .cls-18, .cls-19, .cls-20, .cls-21, .cls-22, .cls-23, .cls-24, .cls-25 {
        fill: none;
      }

      .cls-26 {
        fill: #c90080;
      }

      .cls-27 {
        fill: #d5e3a6;
      }

      .cls-2 {
        stroke: #00c3b4;
      }

      .cls-2, .cls-3, .cls-4, .cls-5, .cls-6, .cls-7, .cls-8, .cls-9, .cls-10, .cls-11, .cls-12, .cls-13, .cls-14, .cls-15, .cls-16, .cls-17, .cls-18, .cls-19, .cls-20, .cls-21, .cls-22, .cls-23, .cls-24, .cls-25 {
        stroke-linejoin: round;
      }

      .cls-2, .cls-3, .cls-4, .cls-5, .cls-6, .cls-7, .cls-8, .cls-13, .cls-14, .cls-15, .cls-16, .cls-17, .cls-18, .cls-19, .cls-20, .cls-21, .cls-22, .cls-23, .cls-24, .cls-25 {
        stroke-linecap: round;
      }

      .cls-2, .cls-3, .cls-4, .cls-5, .cls-6, .cls-7, .cls-8, .cls-13, .cls-14, .cls-15, .cls-17, .cls-18, .cls-19, .cls-20, .cls-21, .cls-22, .cls-23, .cls-24, .cls-25 {
        stroke-width: .71px;
      }

      .cls-3 {
        stroke: #e18c00;
      }

      .cls-28 {
        fill: #a487c2;
      }

      .cls-4 {
        stroke: #f87d00;
      }

      .cls-29 {
        fill: #00c0d6;
      }

      .cls-30 {
        fill: #d86aaa;
      }

      .cls-31 {
        fill: #736fa8;
      }

      .cls-32 {
        fill: #2e539b;
      }

      .cls-33, .cls-34, .cls-35 {
        font-family: Helvetica, Helvetica;
      }

      .cls-33, .cls-35 {
        font-size: 6px;
      }

      .cls-34 {
        font-size: 6px;
      }

      .cls-5 {
        stroke: #00c055;
      }

      .cls-6 {
        stroke: #c19b00;
      }

      .cls-36 {
        fill: #00c055;
      }

      .cls-37 {
        fill: #00a9ff;
      }

      .cls-38 {
        fill: #e18c00;
      }

      .cls-39 {
        fill: #c57eff;
      }

      .cls-40 {
        fill: #00ba00;
      }

      .cls-7 {
        stroke: #f265fd;
      }

      .cls-8 {
        stroke: #58b100;
      }

      .cls-41 {
        fill: #ff55e4;
      }

      .cls-9, .cls-10, .cls-16 {
        stroke: #000;
      }

      .cls-9, .cls-12 {
        stroke-width: .5px;
      }

      .cls-10, .cls-11 {
        stroke-width: .51px;
      }

      .cls-42 {
        letter-spacing: 0em;
      }

      .cls-11, .cls-12 {
        stroke: #333;
      }

      .cls-43 {
        fill: #f265fd;
      }

      .cls-44 {
        fill: #00b7f3;
      }

      .cls-45 {
        fill: #ff6c67;
      }

      .cls-13 {
        stroke: #98a600;
      }

      .cls-46 {
        fill: #fff;
      }

      .cls-14 {
        stroke: #ff5c99;
      }

      .cls-47 {
        letter-spacing: 0em;
      }

      .cls-15 {
        stroke: #ff52c2;
      }

      .cls-48 {
        fill: #43ad68;
      }

      .cls-49 {
        fill: #d4d0e9;
      }

      .cls-50 {
        fill: #ff52c2;
      }

      .cls-16 {
        stroke-width: .64px;
      }

      .cls-17 {
        stroke: #ff55e4;
      }

      .cls-51 {
        fill: #c19b00;
      }

      .cls-52 {
        fill: #98a600;
      }

      .cls-53 {
        fill: #ff5c99;
      }

      .cls-18 {
        stroke: #00a9ff;
      }

      .cls-19 {
        stroke: #ff6c67;
      }

      .cls-20 {
        stroke: #00c0d6;
      }

      .cls-21 {
        stroke: #00b7f3;
      }

      .cls-54 {
        letter-spacing: -.02em;
      }

      .cls-55 {
        letter-spacing: -.02em;
      }

      .cls-56 {
        letter-spacing: -.02em;
      }

      .cls-57 {
        letter-spacing: -.02em;
      }

      .cls-58 {
        letter-spacing: -.01em;
      }

      .cls-59 {
        letter-spacing: -.01em;
      }

      .cls-60 {
        letter-spacing: -.02em;
      }

      .cls-61 {
        letter-spacing: -.05em;
      }

      .cls-62 {
        fill: #e2add1;
      }

      .cls-63 {
        letter-spacing: -.03em;
      }

      .cls-64 {
        letter-spacing: -.03em;
      }

      .cls-65 {
        letter-spacing: -.03em;
      }

      .cls-66 {
        fill: #3ec6ec;
      }

      .cls-67 {
        letter-spacing: -.01em;
      }

      .cls-68 {
        letter-spacing: -.01em;
      }

      .cls-69 {
        letter-spacing: 0em;
      }

      .cls-22 {
        stroke: #c57eff;
      }

      .cls-70 {
        letter-spacing: 0em;
      }

      .cls-71 {
        fill: #7996ff;
      }

      .cls-72 {
        fill: #f87d00;
      }

      .cls-35 {
        fill: #4d4d4d;
      }

      .cls-73 {
        fill: #00c389;
      }

      .cls-23 {
        stroke: #00c389;
      }

      .cls-74 {
        clip-path: url(#clippath);
      }

      .cls-24 {
        stroke: #00ba00;
      }

      .cls-75 {
        letter-spacing: .01em;
      }

      .cls-76 {
        letter-spacing: .01em;
      }

      .cls-77 {
        fill: #00c3b4;
      }

      .cls-25 {
        stroke: #7996ff;
      }

      .cls-78 {
        letter-spacing: .04em;
      }

      .cls-79 {
        letter-spacing: .04em;
      }

      .cls-80 {
        letter-spacing: .04em;
      }

      .cls-81 {
        fill: #58b100;
      }
    </style>
    <clipPath id="clippath">
      <rect class="cls-1" x="20.08" y="3.82" width="265.08" height="106.03"/>
    </clipPath>
  </defs>
  <g>
    <rect class="cls-46" x="370.43" width="121.66" height="121.66"/>
    <path class="cls-45" d="M408.65,109.87c0-1.08.88-1.96,1.96-1.96s1.95.88,1.95,1.96-.88,1.95-1.95,1.95-1.96-.88-1.96-1.95"/>
    <path class="cls-19" d="M408.65,109.87c0-1.08.88-1.96,1.96-1.96s1.95.88,1.95,1.96-.88,1.95-1.95,1.95-1.96-.88-1.96-1.95"/>
    <path class="cls-72" d="M433.22,81.35c0-1.08.88-1.96,1.96-1.96s1.95.88,1.95,1.96-.88,1.95-1.95,1.95-1.96-.88-1.96-1.95"/>
    <path class="cls-4" d="M433.22,81.35c0-1.08.88-1.96,1.96-1.96s1.95.88,1.95,1.96-.88,1.95-1.95,1.95-1.96-.88-1.96-1.95"/>
    <path class="cls-38" d="M424.33,68.83c0-1.08.88-1.96,1.96-1.96s1.95.88,1.95,1.96-.88,1.95-1.95,1.95-1.96-.88-1.96-1.95"/>
    <path class="cls-3" d="M424.33,68.83c0-1.08.88-1.96,1.96-1.96s1.95.88,1.95,1.96-.88,1.95-1.95,1.95-1.96-.88-1.96-1.95"/>
    <path class="cls-51" d="M484.6,89c0-1.07.88-1.95,1.96-1.95s1.95.88,1.95,1.95-.88,1.96-1.95,1.96-1.96-.88-1.96-1.96"/>
    <path class="cls-6" d="M484.6,89c0-1.07.88-1.95,1.96-1.95s1.95.88,1.95,1.95-.88,1.96-1.95,1.96-1.96-.88-1.96-1.96"/>
    <path class="cls-81" d="M404.26,55.61c0-1.07.88-1.95,1.96-1.95s1.95.88,1.95,1.95-.88,1.96-1.95,1.96-1.96-.88-1.96-1.96"/>
    <path class="cls-8" d="M404.26,55.61c0-1.07.88-1.95,1.96-1.95s1.95.88,1.95,1.95-.88,1.96-1.95,1.96-1.96-.88-1.96-1.96"/>
    <path class="cls-36" d="M472.09,66.74c0-1.07.88-1.95,1.95-1.95s1.96.88,1.96,1.95-.88,1.96-1.96,1.96-1.95-.88-1.95-1.96"/>
    <path class="cls-5" d="M472.09,66.74c0-1.07.88-1.95,1.95-1.95s1.96.88,1.96,1.95-.88,1.96-1.96,1.96-1.95-.88-1.95-1.96"/>
    <path class="cls-73" d="M464.55,89c0-1.07.88-1.95,1.95-1.95s1.96.88,1.96,1.95-.88,1.96-1.96,1.96-1.95-.88-1.95-1.96"/>
    <path class="cls-23" d="M464.55,89c0-1.07.88-1.95,1.95-1.95s1.96.88,1.96,1.95-.88,1.96-1.96,1.96-1.95-.88-1.95-1.96"/>
    <path class="cls-77" d="M430.66,44.48c0-1.07.88-1.95,1.95-1.95s1.96.88,1.96,1.95-.88,1.96-1.96,1.96-1.95-.88-1.95-1.96"/>
    <path class="cls-2" d="M430.66,44.48c0-1.07.88-1.95,1.95-1.95s1.96.88,1.96,1.95-.88,1.96-1.96,1.96-1.95-.88-1.95-1.96"/>
    <path class="cls-29" d="M447.62,45.18c0-1.08.88-1.96,1.95-1.96s1.96.88,1.96,1.96-.88,1.95-1.96,1.95-1.95-.88-1.95-1.95"/>
    <path class="cls-20" d="M447.62,45.18c0-1.08.88-1.96,1.95-1.96s1.96.88,1.96,1.96-.88,1.95-1.96,1.95-1.95-.88-1.95-1.95"/>
    <path class="cls-44" d="M468.66,5.53c0-1.07.88-1.95,1.95-1.95s1.96.88,1.96,1.95-.88,1.96-1.96,1.96-1.95-.88-1.95-1.96"/>
    <path class="cls-21" d="M468.66,5.53c0-1.07.88-1.95,1.95-1.95s1.96.88,1.96,1.95-.88,1.96-1.96,1.96-1.95-.88-1.95-1.96"/>
    <path class="cls-37" d="M410.02,64.66c0-1.08.88-1.96,1.95-1.96s1.96.88,1.96,1.96-.88,1.95-1.96,1.95-1.95-.88-1.95-1.95"/>
    <path class="cls-18" d="M410.02,64.66c0-1.08.88-1.96,1.95-1.96s1.96.88,1.96,1.96-.88,1.95-1.96,1.95-1.95-.88-1.95-1.95"/>
    <path class="cls-39" d="M399.8,95.96c0-1.08.88-1.96,1.96-1.96s1.95.88,1.95,1.96-.88,1.95-1.95,1.95-1.96-.88-1.96-1.95"/>
    <path class="cls-22" d="M399.8,95.96c0-1.08.88-1.96,1.96-1.96s1.95.88,1.95,1.96-.88,1.95-1.95,1.95-1.96-.88-1.96-1.95"/>
    <path class="cls-43" d="M420.17,61.87c0-1.07.88-1.95,1.96-1.95s1.95.88,1.95,1.95-.88,1.96-1.95,1.96-1.96-.88-1.96-1.96"/>
    <path class="cls-7" d="M420.17,61.87c0-1.07.88-1.95,1.96-1.95s1.95.88,1.95,1.95-.88,1.96-1.95,1.96-1.96-.88-1.96-1.96"/>
    <path class="cls-41" d="M413.1,33.35c0-1.07.88-1.95,1.95-1.95s1.96.88,1.96,1.95-.88,1.96-1.96,1.96-1.95-.88-1.95-1.96"/>
    <path class="cls-17" d="M413.1,33.35c0-1.07.88-1.95,1.95-1.95s1.96.88,1.96,1.95-.88,1.96-1.96,1.96-1.95-.88-1.95-1.96"/>
    <path class="cls-50" d="M426.52,61.18c0-1.08.88-1.96,1.96-1.96s1.95.88,1.95,1.96-.88,1.95-1.95,1.95-1.96-.88-1.96-1.95"/>
    <path class="cls-15" d="M426.52,61.18c0-1.08.88-1.96,1.96-1.96s1.95.88,1.95,1.96-.88,1.95-1.95,1.95-1.96-.88-1.96-1.95"/>
    <path class="cls-53" d="M374.01,93.17c0-1.07.88-1.95,1.95-1.95s1.96.88,1.96,1.95-.88,1.96-1.96,1.96-1.95-.88-1.95-1.96"/>
    <path class="cls-14" d="M374.01,93.17c0-1.07.88-1.95,1.95-1.95s1.96.88,1.96,1.95-.88,1.96-1.96,1.96-1.95-.88-1.95-1.96"/>
    <path class="cls-40" d="M437.76,53.53c0-1.08.88-1.96,1.96-1.96s1.95.88,1.95,1.96-.88,1.95-1.95,1.95-1.96-.88-1.96-1.95"/>
    <path class="cls-24" d="M437.76,53.53c0-1.08.88-1.96,1.96-1.96s1.95.88,1.95,1.96-.88,1.95-1.95,1.95-1.96-.88-1.96-1.95"/>
    <path class="cls-71" d="M433.44,115.43c0-1.07.88-1.95,1.96-1.95s1.95.88,1.95,1.95-.88,1.96-1.95,1.96-1.96-.88-1.96-1.96"/>
    <path class="cls-25" d="M433.44,115.43c0-1.07.88-1.95,1.96-1.95s1.95.88,1.95,1.95-.88,1.96-1.95,1.96-1.96-.88-1.96-1.96"/>
    <path class="cls-52" d="M481.06,116.13c0-1.08.88-1.96,1.96-1.96s1.95.88,1.95,1.96-.88,1.95-1.95,1.95-1.96-.88-1.96-1.95"/>
    <path class="cls-13" d="M481.06,116.13c0-1.08.88-1.96,1.96-1.96s1.95.88,1.95,1.96-.88,1.95-1.95,1.95-1.96-.88-1.96-1.95"/>
    <line class="cls-16" x1="408.3" y1="107.54" x2="409.83" y2="109.08"/>
    <line class="cls-16" x1="438.06" y1="85.04" x2="435.86" y2="82.22"/>
    <line class="cls-16" x1="427.99" y1="70.61" x2="427.05" y2="69.63"/>
    <line class="cls-16" x1="483.3" y1="92.65" x2="485.82" y2="89.83"/>
    <line class="cls-16" x1="402.56" y1="55.71" x2="405.11" y2="55.64"/>
    <line class="cls-16" x1="476.54" y1="72.61" x2="474.48" y2="67.76"/>
    <line class="cls-16" x1="463.86" y1="85.3" x2="465.86" y2="88.1"/>
    <line class="cls-16" x1="435.56" y1="40.86" x2="433.31" y2="43.62"/>
    <line class="cls-16" x1="453.22" y1="46.08" x2="450.65" y2="45.45"/>
    <line class="cls-16" x1="470.44" y1="11.17" x2="470.58" y2="6.64"/>
    <line class="cls-16" x1="407.76" y1="67.59" x2="411.06" y2="65.29"/>
    <line class="cls-16" x1="406.21" y1="96.83" x2="402.43" y2="96.83"/>
    <line class="cls-16" x1="410.55" y1="46.63" x2="421.46" y2="60.99"/>
    <line class="cls-16" x1="410.74" y1="28.81" x2="414.29" y2="32.55"/>
    <line class="cls-16" x1="430" y1="59.59" x2="429.24" y2="60.38"/>
    <line class="cls-16" x1="379.4" y1="89.52" x2="376.72" y2="92.37"/>
    <line class="cls-16" x1="443.18" y1="57.44" x2="440.45" y2="54.36"/>
    <line class="cls-16" x1="437.72" y1="103.37" x2="435.61" y2="114.34"/>
    <text class="cls-33" transform="translate(374.75 105.74)"><tspan x="0" y="0">adipose tissue</tspan></text>
    <text class="cls-33" transform="translate(432.53 91.14)"><tspan class="cls-56" x="0" y="0">b</tspan><tspan x="3.22" y="0">lood</tspan></text>
    <text class="cls-33" transform="translate(414.58 76.72)"><tspan x="0" y="0">bone marr</tspan><tspan class="cls-59" x="27.35" y="0">o</tspan><tspan x="30.59" y="0">w</tspan></text>
    <text class="cls-33" transform="translate(471.01 98.76)"><tspan x="0" y="0">breast</tspan></text>
    <text class="cls-33" transform="translate(386.42 57.87)"><tspan x="0" y="0">colon</tspan></text>
    <text class="cls-33" transform="translate(478.34 76.53)"><tspan class="cls-56" x="0" y="0">ey</tspan><tspan x="6.1" y="0">e</tspan></text>
    <text class="cls-33" transform="translate(455.77 83.5)"><tspan x="0" y="0">hea</tspan><tspan class="cls-80" x="10.01" y="0">r</tspan><tspan x="12.24" y="0">t</tspan></text>
    <text class="cls-33" transform="translate(429.07 39.06)"><tspan x="0" y="0">kidn</tspan><tspan class="cls-56" x="11.01" y="0">e</tspan><tspan x="14.22" y="0">y</tspan></text>
    <text class="cls-33" transform="translate(455.02 48.27)"><tspan x="0" y="0">li</tspan><tspan class="cls-55" x="2.67" y="0">v</tspan><tspan x="5.52" y="0">er</tspan></text>
    <text class="cls-33" transform="translate(457.3 15.36)"><tspan x="0" y="0">lung</tspan></text>
    <text class="cls-33" transform="translate(374.95 70.85)"><tspan x="0" y="0">lymph node</tspan></text>
    <text class="cls-33" transform="translate(407.19 98.43)"><tspan x="0" y="0">prostate gland</tspan></text>
    <text class="cls-33" transform="translate(388.32 44.83)"><tspan x="0" y="0">skin of body</tspan></text>
    <text class="cls-33" transform="translate(382.47 27.01)"><tspan x="0" y="0">small intestine</tspan></text>
    <text class="cls-33" transform="translate(425.19 57.79)"><tspan x="0" y="0">spleen</tspan></text>
    <text class="cls-33" transform="translate(374.75 87.72)"><tspan x="0" y="0">stomach</tspan></text>
    <text class="cls-33" transform="translate(444.98 61.24)"><tspan x="0" y="0">endoc</tspan><tspan class="cls-76" x="16.35" y="0">r</tspan><tspan x="18.43" y="0">ine gland</tspan></text>
    <text class="cls-33" transform="translate(439.52 104.38)"><tspan x="0" y="0">midb</tspan><tspan class="cls-68" x="13" y="0">r</tspan><tspan class="cls-47" x="14.94" y="0">ain</tspan></text>
    <text class="cls-33" transform="translate(440.82 117.34)"><tspan x="0" y="0">cereb</tspan><tspan class="cls-70" x="15.01" y="0">r</tspan><tspan x="16.95" y="0">al co</tspan><tspan class="cls-80" x="29.62" y="0">r</tspan><tspan x="31.85" y="0">t</tspan><tspan class="cls-63" x="33.52" y="0">e</tspan><tspan x="36.68" y="0">x</tspan></text>
    <rect class="cls-1" x="370.43" width="121.66" height="121.66"/>
    <line class="cls-10" x1="370.43" y1="121.66" x2="370.43"/>
    <text class="cls-35" transform="translate(361.43 91.85)"><tspan x="0" y="0">50</tspan></text>
    <text class="cls-35" transform="translate(358.09 57.07)"><tspan x="0" y="0">100</tspan></text>
    <text class="cls-35" transform="translate(358.09 22.29)"><tspan x="0" y="0">150</tspan></text>
    <line class="cls-11" x1="369.14" y1="89.7" x2="370.43" y2="89.7"/>
    <line class="cls-11" x1="369.14" y1="54.92" x2="370.43" y2="54.92"/>
    <line class="cls-11" x1="369.14" y1="20.14" x2="370.43" y2="20.14"/>
    <line class="cls-10" x1="370.43" y1="121.66" x2="492.09" y2="121.66"/>
    <line class="cls-11" x1="390.25" y1="122.95" x2="390.25" y2="121.66"/>
    <line class="cls-11" x1="421.12" y1="122.95" x2="421.12" y2="121.66"/>
    <line class="cls-11" x1="454.95" y1="122.95" x2="454.95" y2="121.66"/>
    <line class="cls-11" x1="485.82" y1="122.95" x2="485.82" y2="121.66"/>
    <text class="cls-35" transform="translate(381.83 128.3)"><tspan x="0" y="0">1e+05</tspan></text>
    <text class="cls-35" transform="translate(412.7 128.3)"><tspan x="0" y="0">3e+05</tspan></text>
    <text class="cls-35" transform="translate(446.53 128.3)"><tspan x="0" y="0">1e+06</tspan></text>
    <text class="cls-35" transform="translate(477.4 128.3)"><tspan x="0" y="0">3e+06</tspan></text>
    <text class="cls-33" transform="translate(410.95 135.23)"><tspan class="cls-68" x="0" y="0">n</tspan><tspan x="3.28" y="0">umber of cells</tspan></text>
    <text class="cls-33" transform="translate(355.47 87.64) rotate(-90)"><tspan class="cls-68" x="0" y="0">n</tspan><tspan x="3.28" y="0">umber of cell types</tspan></text>
  </g>
  <g>
    <g class="cls-74">
      <rect class="cls-46" x="20.08" y="3.82" width="265.08" height="106.03"/>
      <rect class="cls-66" x="24.91" y="3.82" width="6.9" height="90.74"/>
      <rect class="cls-49" x="24.91" y="94.56" width="6.9" height="14.62"/>
      <rect class="cls-26" x="24.91" y="109.18" width="6.9" height=".67"/>
      <rect class="cls-66" x="38.71" y="12.6" width="6.9" height="50.12"/>
      <rect class="cls-27" x="38.71" y="3.82" width="6.9" height="8.77"/>
      <rect class="cls-30" x="38.71" y="99.27" width="6.9" height="9.73"/>
      <rect class="cls-62" x="38.71" y="83.82" width="6.9" height="15.46"/>
      <rect class="cls-31" x="38.71" y="64.43" width="6.9" height="19.38"/>
      <rect class="cls-26" x="38.71" y="109" width="6.9" height=".85"/>
      <rect class="cls-32" x="38.71" y="62.72" width="6.9" height="1.72"/>
      <rect class="cls-32" x="52.52" y="52.51" width="6.9" height="2.09"/>
      <rect class="cls-26" x="52.52" y="108.5" width="6.9" height="1.35"/>
      <rect class="cls-66" x="52.52" y="40.12" width="6.9" height="12.39"/>
      <rect class="cls-31" x="52.52" y="54.6" width="6.9" height="52.7"/>
      <rect class="cls-62" x="52.52" y="107.3" width="6.9" height="1.2"/>
      <rect class="cls-27" x="52.52" y="3.82" width="6.9" height="36.3"/>
      <rect class="cls-27" x="66.33" y="3.82" width="6.9" height="7.93"/>
      <rect class="cls-66" x="66.33" y="11.75" width="6.9" height="98.1"/>
      <rect class="cls-27" x="93.94" y="43.88" width="6.9" height="41"/>
      <rect class="cls-66" x="93.94" y="84.88" width="6.9" height="24.48"/>
      <rect class="cls-48" x="93.94" y="3.82" width="6.9" height="40.07"/>
      <rect class="cls-31" x="93.94" y="109.36" width="6.9" height=".49"/>
      <rect class="cls-66" x="121.55" y="19.08" width="6.9" height="90.04"/>
      <rect class="cls-26" x="121.55" y="109.81" width="6.9" height=".04"/>
      <rect class="cls-27" x="121.55" y="3.82" width="6.9" height="15.26"/>
      <rect class="cls-28" x="121.55" y="109.12" width="6.9" height=".69"/>
      <rect class="cls-66" x="135.36" y="48.86" width="6.9" height="59.19"/>
      <rect class="cls-27" x="135.36" y="3.82" width="6.9" height="45.04"/>
      <rect class="cls-26" x="135.36" y="109.81" width="6.9" height=".04"/>
      <rect class="cls-28" x="135.36" y="108.05" width="6.9" height="1.76"/>
      <rect class="cls-27" x="149.17" y="3.82" width="6.9" height="35.64"/>
      <rect class="cls-66" x="149.17" y="39.46" width="6.9" height="54.99"/>
      <rect class="cls-26" x="149.17" y="109.68" width="6.9" height=".17"/>
      <rect class="cls-31" x="149.17" y="94.45" width="6.9" height="6.17"/>
      <rect class="cls-28" x="149.17" y="100.63" width="6.9" height="9.05"/>
      <rect class="cls-27" x="162.97" y="3.82" width="6.9" height="55.04"/>
      <rect class="cls-66" x="162.97" y="58.86" width="6.9" height="21.65"/>
      <rect class="cls-26" x="162.97" y="109.8" width="6.9" height=".05"/>
      <rect class="cls-31" x="162.97" y="80.51" width="6.9" height="24.86"/>
      <rect class="cls-62" x="162.97" y="105.37" width="6.9" height=".86"/>
      <rect class="cls-28" x="162.97" y="106.23" width="6.9" height="3.57"/>
      <rect class="cls-31" x="176.78" y="73.45" width="6.9" height="30.52"/>
      <rect class="cls-27" x="176.78" y="4.17" width="6.9" height="49.15"/>
      <rect class="cls-32" x="176.78" y="70.79" width="6.9" height="2.66"/>
      <rect class="cls-66" x="176.78" y="53.32" width="6.9" height="17.47"/>
      <rect class="cls-62" x="176.78" y="103.97" width="6.9" height=".5"/>
      <rect class="cls-26" x="176.78" y="108.65" width="6.9" height="1.2"/>
      <rect class="cls-28" x="176.78" y="105.41" width="6.9" height="3.24"/>
      <rect class="cls-48" x="176.78" y="3.82" width="6.9" height=".35"/>
      <rect class="cls-49" x="176.78" y="104.47" width="6.9" height=".94"/>
      <rect class="cls-31" x="190.59" y="66" width="6.9" height="25.49"/>
      <rect class="cls-62" x="190.59" y="91.49" width="6.9" height="16.03"/>
      <rect class="cls-66" x="190.59" y="4.21" width="6.9" height="48.04"/>
      <rect class="cls-26" x="190.59" y="107.52" width="6.9" height="2.33"/>
      <rect class="cls-32" x="190.59" y="52.25" width="6.9" height="13.75"/>
      <rect class="cls-27" x="190.59" y="3.82" width="6.9" height=".39"/>
      <rect class="cls-27" x="218.2" y="3.82" width="6.9" height="82.98"/>
      <rect class="cls-66" x="218.2" y="86.8" width="6.9" height="22.16"/>
      <rect class="cls-26" x="218.2" y="108.96" width="6.9" height=".89"/>
      <rect class="cls-66" x="232.01" y="47.5" width="6.9" height="8.88"/>
      <rect class="cls-27" x="232.01" y="4.34" width="6.9" height="43.16"/>
      <rect class="cls-48" x="232.01" y="3.82" width="6.9" height=".52"/>
      <rect class="cls-26" x="232.01" y="109.27" width="6.9" height=".58"/>
      <rect class="cls-31" x="232.01" y="56.38" width="6.9" height="52.9"/>
      <rect class="cls-27" x="245.81" y="3.82" width="6.9" height="57.13"/>
      <rect class="cls-66" x="245.81" y="60.95" width="6.9" height="26.69"/>
      <rect class="cls-26" x="245.81" y="109.32" width="6.9" height=".53"/>
      <rect class="cls-31" x="245.81" y="87.64" width="6.9" height=".72"/>
      <rect class="cls-62" x="245.81" y="88.36" width="6.9" height="20.96"/>
      <rect class="cls-31" x="259.62" y="54.98" width="6.9" height="47.07"/>
      <rect class="cls-62" x="259.62" y="102.06" width="6.9" height="5.74"/>
      <rect class="cls-66" x="259.62" y="29.84" width="6.9" height="20.78"/>
      <rect class="cls-27" x="259.62" y="3.82" width="6.9" height="26.02"/>
      <rect class="cls-26" x="259.62" y="108.68" width="6.9" height="1.17"/>
      <rect class="cls-32" x="259.62" y="50.61" width="6.9" height="4.37"/>
      <rect class="cls-28" x="259.62" y="107.79" width="6.9" height=".89"/>
      <rect class="cls-27" x="273.43" y="3.82" width="6.9" height="74.81"/>
      <rect class="cls-66" x="273.43" y="78.63" width="6.9" height="25.67"/>
      <rect class="cls-28" x="273.43" y="104.3" width="6.9" height="5.55"/>
      <rect class="cls-27" x="107.75" y="3.81" width="6.9" height="43.34"/>
      <rect class="cls-31" x="107.75" y="62.02" width="6.9" height="47.22"/>
      <rect class="cls-66" x="107.75" y="47.16" width="6.9" height="9.89"/>
      <rect class="cls-32" x="107.75" y="57.04" width="6.9" height="4.97"/>
      <rect class="cls-26" x="107.75" y="109.63" width="6.9" height=".22"/>
      <rect class="cls-28" x="107.75" y="109.23" width="6.9" height=".4"/>
      <rect class="cls-66" x="204.39" y="3.82" width="6.9" height="106.03"/>
      <rect class="cls-66" x="80.13" y="3.82" width="6.9" height="106.03"/>
    </g>
    <line class="cls-9" x1="20.08" y1="109.85" x2="20.08" y2="3.82"/>
    <text class="cls-35" transform="translate(14.43 112.01)"><tspan x="0" y="0">0</tspan></text>
    <text class="cls-35" transform="translate(11.09 85.5)"><tspan x="0" y="0">25</tspan></text>
    <text class="cls-35" transform="translate(11.09 58.99)"><tspan x="0" y="0">50</tspan></text>
    <text class="cls-35" transform="translate(11.09 32.48)"><tspan x="0" y="0">75</tspan></text>
    <text class="cls-35" transform="translate(7.76 5.97)"><tspan x="0" y="0">100</tspan></text>
    <line class="cls-12" x1="18.79" y1="109.85" x2="20.08" y2="109.85"/>
    <line class="cls-12" x1="18.79" y1="83.34" x2="20.08" y2="83.34"/>
    <line class="cls-12" x1="18.79" y1="56.83" x2="20.08" y2="56.83"/>
    <line class="cls-12" x1="18.79" y1="30.33" x2="20.08" y2="30.33"/>
    <line class="cls-12" x1="18.79" y1="3.82" x2="20.08" y2="3.82"/>
    <line class="cls-9" x1="20.08" y1="109.85" x2="285.16" y2="109.85"/>
    <line class="cls-12" x1="28.36" y1="111.14" x2="28.36" y2="109.85"/>
    <line class="cls-12" x1="42.17" y1="111.14" x2="42.17" y2="109.85"/>
    <line class="cls-12" x1="55.97" y1="111.14" x2="55.97" y2="109.85"/>
    <line class="cls-12" x1="69.78" y1="111.14" x2="69.78" y2="109.85"/>
    <line class="cls-12" x1="83.59" y1="111.14" x2="83.59" y2="109.85"/>
    <line class="cls-12" x1="97.39" y1="111.14" x2="97.39" y2="109.85"/>
    <line class="cls-12" x1="111.2" y1="111.14" x2="111.2" y2="109.85"/>
    <line class="cls-12" x1="125.01" y1="111.14" x2="125.01" y2="109.85"/>
    <line class="cls-12" x1="138.81" y1="111.14" x2="138.81" y2="109.85"/>
    <line class="cls-12" x1="152.62" y1="111.14" x2="152.62" y2="109.85"/>
    <line class="cls-12" x1="166.42" y1="111.14" x2="166.42" y2="109.85"/>
    <line class="cls-12" x1="180.23" y1="111.14" x2="180.23" y2="109.85"/>
    <line class="cls-12" x1="194.04" y1="111.14" x2="194.04" y2="109.85"/>
    <line class="cls-12" x1="207.84" y1="111.14" x2="207.84" y2="109.85"/>
    <line class="cls-12" x1="221.65" y1="111.14" x2="221.65" y2="109.85"/>
    <line class="cls-12" x1="235.46" y1="111.14" x2="235.46" y2="109.85"/>
    <line class="cls-12" x1="249.26" y1="111.14" x2="249.26" y2="109.85"/>
    <line class="cls-12" x1="263.07" y1="111.14" x2="263.07" y2="109.85"/>
    <line class="cls-12" x1="276.88" y1="111.14" x2="276.88" y2="109.85"/>
    <text class="cls-34" transform="translate(4.35 142.33) rotate(-45)"><tspan x="0" y="0">adipose tissue</tspan></text>
    <text class="cls-34" transform="translate(34.98 125.5) rotate(-45)"><tspan class="cls-57" x="0" y="0">b</tspan><tspan x="3.21" y="0">lood</tspan></text>
    <text class="cls-34" transform="translate(34.39 139.9) rotate(-45)"><tspan x="0" y="0">bone marr</tspan><tspan class="cls-58" x="27.33" y="0">o</tspan><tspan x="30.57" y="0">w</tspan></text>
    <text class="cls-34" transform="translate(61.1 127) rotate(-45)"><tspan x="0" y="0">breast</tspan></text>
    <text class="cls-34" transform="translate(58.64 143.27) rotate(-45)"><tspan x="0" y="0">cereb</tspan><tspan class="cls-69" x="15" y="0">r</tspan><tspan class="cls-42" x="16.94" y="0">al co</tspan><tspan class="cls-79" x="29.6" y="0">r</tspan><tspan x="31.83" y="0">t</tspan><tspan class="cls-64" x="33.5" y="0">e</tspan><tspan x="36.65" y="0">x</tspan></text>
    <text class="cls-34" transform="translate(90.36 125.35) rotate(-45)"><tspan x="0" y="0">colon</tspan></text>
    <text class="cls-34" transform="translate(84.05 145.46) rotate(-45)"><tspan x="0" y="0">endoc</tspan><tspan class="cls-75" x="16.34" y="0">r</tspan><tspan x="18.42" y="0">ine gland</tspan></text>
    <text class="cls-34" transform="translate(121.44 121.88) rotate(-45)"><tspan class="cls-57" x="0" y="0">e</tspan><tspan class="cls-60" x="3.21" y="0">y</tspan><tspan x="6.1" y="0">e</tspan></text>
    <text class="cls-34" transform="translate(132.08 125.05) rotate(-45)"><tspan x="0" y="0">hea</tspan><tspan class="cls-79" x="10" y="0">r</tspan><tspan class="cls-42" x="12.24" y="0">t</tspan></text>
    <text class="cls-34" transform="translate(143.55 127.39) rotate(-45)"><tspan x="0" y="0">kidn</tspan><tspan class="cls-57" x="11" y="0">e</tspan><tspan x="14.21" y="0">y</tspan></text>
    <text class="cls-34" transform="translate(161.86 122.88) rotate(-45)"><tspan x="0" y="0">li</tspan><tspan class="cls-54" x="2.66" y="0">v</tspan><tspan class="cls-42" x="5.51" y="0">er</tspan></text>
    <text class="cls-34" transform="translate(175.32 123.23) rotate(-45)"><tspan x="0" y="0">lung</tspan></text>
    <text class="cls-34" transform="translate(175.21 137.14) rotate(-45)"><tspan x="0" y="0">lymph node</tspan></text>
    <text class="cls-34" transform="translate(194.73 131.43) rotate(-45)"><tspan x="0" y="0">midb</tspan><tspan class="cls-67" x="13" y="0">r</tspan><tspan x="14.93" y="0">ain</tspan></text>
    <text class="cls-34" transform="translate(197.87 142.09) rotate(-45)"><tspan x="0" y="0">prostate gland</tspan></text>
    <text class="cls-34" transform="translate(215.92 137.85) rotate(-45)"><tspan x="0" y="0">skin of body</tspan></text>
    <text class="cls-34" transform="translate(225.49 142.09) rotate(-45)"><tspan x="0" y="0">small intestine</tspan></text>
    <text class="cls-34" transform="translate(253.68 127.71) rotate(-45)"><tspan x="0" y="0">spleen</tspan></text>
    <text class="cls-34" transform="translate(263.95 131.24) rotate(-45)"><tspan x="0" y="0">stomach</tspan></text>
    <text class="cls-33" transform="translate(5.15 94.54) rotate(-90)"><tspan class="cls-61" x="0" y="0">P</tspan><tspan x="3.71" y="0">ercentage of technical type</tspan></text>
    <text class="cls-33" transform="translate(292.86 13.06)"><tspan x="0" y="0">ass</tspan><tspan class="cls-63" x="9.34" y="0">a</tspan><tspan x="12.49" y="0">y</tspan></text>
    <rect class="cls-46" x="292.86" y="16.29" width="8.93" height="8.93"/>
    <rect class="cls-48" x="293.57" y="17" width="7.51" height="7.51"/>
    <rect class="cls-46" x="292.86" y="25.22" width="8.93" height="8.93"/>
    <rect class="cls-27" x="293.57" y="25.93" width="7.51" height="7.51"/>
    <rect class="cls-46" x="292.86" y="34.14" width="8.93" height="8.93"/>
    <rect class="cls-66" x="293.57" y="34.86" width="7.51" height="7.51"/>
    <rect class="cls-46" x="292.86" y="43.07" width="8.93" height="8.93"/>
    <rect class="cls-32" x="293.57" y="43.78" width="7.51" height="7.51"/>
    <rect class="cls-46" x="292.86" y="52" width="8.93" height="8.93"/>
    <rect class="cls-31" x="293.57" y="52.71" width="7.51" height="7.51"/>
    <rect class="cls-46" x="292.86" y="60.93" width="8.93" height="8.93"/>
    <rect class="cls-62" x="293.57" y="61.64" width="7.51" height="7.51"/>
    <rect class="cls-46" x="292.86" y="69.86" width="8.93" height="8.93"/>
    <rect class="cls-49" x="293.57" y="70.57" width="7.51" height="7.51"/>
    <rect class="cls-46" x="292.86" y="78.79" width="8.93" height="8.93"/>
    <rect class="cls-28" x="293.57" y="79.5" width="7.51" height="7.51"/>
    <rect class="cls-46" x="292.86" y="87.72" width="8.93" height="8.93"/>
    <rect class="cls-30" x="293.57" y="88.43" width="7.51" height="7.51"/>
    <rect class="cls-46" x="292.86" y="96.65" width="8.93" height="8.93"/>
    <rect class="cls-26" x="293.57" y="97.36" width="7.51" height="7.51"/>
    <text class="cls-33" transform="translate(304.36 22.91)"><tspan x="0" y="0">10x 3&apos; v1</tspan></text>
    <text class="cls-33" transform="translate(304.36 31.83)"><tspan x="0" y="0">10x 3&apos; v2</tspan></text>
    <text class="cls-33" transform="translate(304.36 40.76)"><tspan x="0" y="0">10x 3&apos; v3</tspan></text>
    <text class="cls-33" transform="translate(304.36 49.69)"><tspan x="0" y="0">10x 5&apos;</tspan></text>
    <text class="cls-33" transform="translate(304.36 58.62)"><tspan x="0" y="0">10x 5&apos; v1</tspan></text>
    <text class="cls-33" transform="translate(304.36 67.55)"><tspan x="0" y="0">10x 5&apos; v2</tspan></text>
    <text class="cls-33" transform="translate(304.36 76.48)"><tspan x="0" y="0">Drop−seq</tspan></text>
    <text class="cls-33" transform="translate(304.36 85.41)"><tspan x="0" y="0">sci−RNA−seq</tspan></text>
    <text class="cls-33" transform="translate(304.36 94.34)"><tspan x="0" y="0">Seq−</tspan><tspan class="cls-65" x="14.18" y="0">W</tspan><tspan x="19.67" y="0">ell</tspan></text>
    <text class="cls-33" transform="translate(304.36 103.27)"><tspan x="0" y="0">Sma</tspan><tspan class="cls-78" x="12.34" y="0">r</tspan><tspan x="14.57" y="0">t−seq2</tspan></text>
  </g>
</svg>